<svg id="visual" viewBox="0 0 960 540" width="960" height="540" xmlns="http://www.w3.org/2000/svg" xmlns:xlink="http://www.w3.org/1999/xlink" version="1.1"><rect x="0" y="0" width="960" height="540" fill="#002233"></rect><path d="M0 358L22.8 357.8C45.7 357.7 91.3 357.3 137 363.5C182.7 369.7 228.3 382.3 274 398.2C319.7 414 365.3 433 411.2 432.8C457 432.7 503 413.3 548.8 415.2C594.7 417 640.3 440 686 451.2C731.7 462.3 777.3 461.7 823 443.8C868.7 426 914.3 391 937.2 373.5L960 356L960 541L937.2 541C914.3 541 868.7 541 823 541C777.3 541 731.7 541 686 541C640.3 541 594.7 541 548.8 541C503 541 457 541 411.2 541C365.3 541 319.7 541 274 541C228.3 541 182.7 541 137 541C91.3 541 45.7 541 22.8 541L0 541Z" fill="#0066FF" stroke-linecap="round" stroke-linejoin="miter"></path></svg>